<svg preserveAspectRatio="none" overflow="visible" style="display: block;" width="19.4842" height="25.2167" viewBox="0 0 19.4842 25.2167" fill="none" xmlns="http://www.w3.org/2000/svg">
<g id="Layer 97">
<path id="Vector" d="M9.74209 14.0093C11.1184 14.0093 12.4638 13.5984 13.6081 12.8288C14.7524 12.0591 15.6444 10.9651 16.171 9.68519C16.6977 8.40526 16.8355 6.99686 16.567 5.6381C16.2985 4.27933 15.6358 3.03123 14.6626 2.05161C13.6894 1.072 12.4495 0.40487 11.0997 0.134595C9.74981 -0.13568 8.35066 0.00303499 7.07914 0.533199C5.80761 1.06336 4.72082 1.96116 3.9562 3.11307C3.19157 4.26497 2.78345 5.61925 2.78345 7.00463C2.78345 8.86238 3.51659 10.644 4.82159 11.9577C6.12659 13.2713 7.89655 14.0093 9.74209 14.0093V14.0093ZM9.74209 2.80185C10.5679 2.80185 11.3751 3.04834 12.0617 3.51015C12.7483 3.97196 13.2834 4.62834 13.5995 5.3963C13.9155 6.16426 13.9982 7.00929 13.837 7.82455C13.6759 8.63981 13.2783 9.38868 12.6944 9.97645C12.1105 10.5642 11.3665 10.9645 10.5566 11.1267C9.74672 11.2888 8.90723 11.2056 8.14432 10.8875C7.3814 10.5694 6.72933 10.0307 6.27056 9.33957C5.81178 8.64843 5.56691 7.83586 5.56691 7.00463C5.56691 5.88999 6.00679 4.82099 6.78979 4.03282C7.57279 3.24465 8.63476 2.80185 9.74209 2.80185V2.80185ZM19.4842 21.0139V23.8157C19.4842 24.1873 19.3376 24.5436 19.0766 24.8063C18.8156 25.0691 18.4616 25.2167 18.0925 25.2167C17.7233 25.2167 17.3694 25.0691 17.1084 24.8063C16.8474 24.5436 16.7007 24.1873 16.7007 23.8157V21.0139C16.7007 20.6423 16.5541 20.286 16.2931 20.0233C16.0321 19.7606 15.6781 19.613 15.309 19.613H4.17518C3.80607 19.613 3.45208 19.7606 3.19108 20.0233C2.93008 20.286 2.78345 20.6423 2.78345 21.0139V23.8157C2.78345 24.1873 2.63683 24.5436 2.37583 24.8063C2.11483 25.0691 1.76084 25.2167 1.39173 25.2167C1.02262 25.2167 0.668627 25.0691 0.407628 24.8063C0.146628 24.5436 0 24.1873 0 23.8157V21.0139C0 19.8992 0.439884 18.8303 1.22288 18.0421C2.00588 17.2539 3.06786 16.8111 4.17518 16.8111H15.309C16.4163 16.8111 17.4783 17.2539 18.2613 18.0421C19.0443 18.8303 19.4842 19.8992 19.4842 21.0139Z" fill="#817D78"/>
</g>
</svg>
